<?xml version="1.0" encoding="UTF-8"?>
<!DOCTYPE svg PUBLIC "-//W3C//DTD SVG 1.1//EN" "http://www.w3.org/Graphics/SVG/1.1/DTD/svg11.dtd">
<!-- Creator: CorelDRAW 2019 (64-Bit) -->
<svg xmlns="http://www.w3.org/2000/svg" xml:space="preserve" width="600px" height="143px" version="1.1" style="shape-rendering:geometricPrecision; text-rendering:geometricPrecision; image-rendering:optimizeQuality; fill-rule:evenodd; clip-rule:evenodd"
viewBox="0 0 600 143.37"
 xmlns:xlink="http://www.w3.org/1999/xlink"
 xmlns:xodm="http://www.corel.com/coreldraw/odm/2003">
 <defs>
  <style type="text/css">
   <![CDATA[
    .fil0 {fill:#737476;fill-rule:nonzero}
    .fil1 {fill:#F0637E;fill-rule:nonzero}
   ]]>
  </style>
 </defs>
 <g id="Capa_x0020_1">
  <metadata id="CorelCorpID_0Corel-Layer"/>
  <g id="_1851770880288">
   <g>
    <g>
     <path class="fil0" d="M239.46 83.98c-3.34,5.48 -7.95,9.69 -13.81,12.62 -5.86,2.93 -12.37,4.39 -19.52,4.39 -8.75,0 -16.23,-1.6 -22.43,-4.79 -6.21,-3.2 -10.97,-7.79 -14.28,-13.76 -3.31,-5.97 -4.96,-13.15 -4.96,-21.52 0,-8.6 1.82,-16.14 5.48,-22.61 3.65,-6.46 8.73,-11.53 15.24,-15.18 6.51,-3.65 14.02,-5.48 22.55,-5.48 7.45,0 13.75,1.37 18.89,4.11 5.14,2.74 9.46,6.89 12.96,12.44l-14.27 10.17c-1.83,-3.51 -4.34,-6.06 -7.54,-7.65 -3.19,-1.6 -6.62,-2.4 -10.27,-2.4 -4.8,0 -8.98,1.1 -12.56,3.31 -3.58,2.21 -6.38,5.29 -8.39,9.25 -2.02,3.95 -3.03,8.52 -3.03,13.7 0,7.53 1.98,13.39 5.94,17.58 3.96,4.18 9.55,6.28 16.78,6.28 3.88,0 7.55,-0.93 11.02,-2.8 3.46,-1.86 6.26,-4.7 8.39,-8.51l13.81 10.85z"/>
    </g>
   </g>
   <g>
    <g>
     <polygon class="fil0" points="247.68,99.85 250.54,18.79 266.18,18.79 294.61,76.45 322.81,18.79 338.45,18.79 340.62,99.85 322.58,99.85 321.55,57.61 300.66,99.85 287.07,99.85 266.41,58.06 264.92,99.85 "/>
    </g>
   </g>
   <path class="fil1" d="M425.78 82.38l4.34 14.39c-1.67,1.29 -3.82,2.32 -6.45,3.08 -2.62,0.76 -5.31,1.14 -8.05,1.14 -4.94,0 -9.28,-1.01 -13.01,-3.03 -3.73,-2.01 -6.81,-4.96 -9.25,-8.84l-9.7 -15.53c-1.15,-1.83 -2.27,-3.1 -3.37,-3.82 -1.11,-0.73 -2.38,-1.13 -3.83,-1.2l0 31.28 -18.26 0 0 -81.06 26.6 0c11.19,0 19.58,2.25 25.17,6.74 5.6,4.49 8.39,10.69 8.39,18.61 0,6.24 -1.92,11.34 -5.76,15.29 -3.85,3.96 -8.78,6.55 -14.79,7.77 2.51,1.22 4.72,3.23 6.62,6.05l3.89 5.94c2.43,3.65 5.63,5.48 9.59,5.48 1.44,0 2.81,-0.18 4.11,-0.52 1.29,-0.34 2.55,-0.93 3.76,-1.77zm-42.01 -48.4l0 0 -7.31 0 0 20.09 7.2 0c5.7,0 9.81,-0.82 12.33,-2.46 2.51,-1.63 3.76,-4.2 3.76,-7.7 0,-3.5 -1.41,-6.03 -4.22,-7.59 -2.82,-1.56 -6.74,-2.34 -11.76,-2.34zm78.55 6.84c9.06,0 16.15,2.59 21.29,7.77 5.14,5.18 7.71,12.18 7.71,21.01 0,6.01 -1.3,11.37 -3.89,16.09 -2.58,4.72 -6.24,8.45 -10.96,11.19 -4.72,2.74 -10.27,4.11 -16.66,4.11 -8.99,0 -16.04,-2.58 -21.18,-7.76 -5.14,-5.18 -7.71,-12.14 -7.71,-20.89 0,-6.09 1.29,-11.5 3.88,-16.22 2.59,-4.71 6.24,-8.44 10.96,-11.18 4.72,-2.74 10.24,-4.12 16.56,-4.12zm-1.71 44.99l0 0c3.88,0 6.98,-1.47 9.3,-4.4 2.32,-2.93 3.48,-6.87 3.48,-11.81 0,-4.27 -1.03,-7.6 -3.08,-9.99 -2.06,-2.4 -4.87,-3.6 -8.45,-3.6 -3.96,0 -7.1,1.47 -9.42,4.4 -2.32,2.93 -3.48,6.87 -3.48,11.81 0,4.26 1.01,7.59 3.03,9.99 2.01,2.4 4.89,3.6 8.62,3.6zm72.26 15.18c-6.47,0 -12.06,-1.2 -16.78,-3.59 -4.72,-2.4 -8.37,-5.79 -10.96,-10.17 -2.59,-4.37 -3.88,-9.56 -3.88,-15.58 0,-6.09 1.31,-11.45 3.94,-16.1 2.62,-4.64 6.16,-8.25 10.61,-10.84 4.46,-2.59 9.5,-3.89 15.13,-3.89 6.39,0 11.61,1.45 15.64,4.34 4.04,2.9 6.83,6.99 8.39,12.28 1.56,5.29 1.89,11.43 0.97,18.43l-36.87 0c0.45,2.9 1.98,5.31 4.56,7.25 2.59,1.94 6.13,2.92 10.62,2.92 2.06,0 4.23,-0.44 6.51,-1.32 2.28,-0.87 4.22,-2.18 5.82,-3.94l9.71 10.28c-2.52,3.04 -5.62,5.46 -9.31,7.25 -3.69,1.79 -8.39,2.68 -14.1,2.68zm-1.6 -47.49l0 0c-3.04,0 -5.61,0.91 -7.7,2.74 -2.1,1.82 -3.48,4.38 -4.17,7.65l21.81 0c0.07,-3.58 -0.78,-6.2 -2.57,-7.88 -1.79,-1.67 -4.25,-2.51 -7.37,-2.51zm55.94 47.49c-5.86,0 -10.37,-1.62 -13.52,-4.85 -3.16,-3.23 -4.74,-7.94 -4.74,-14.1l0 -66.67 17.46 0 0 65.41c0,3.51 1.64,5.26 4.91,5.26 1.75,0 3.24,-0.42 4.46,-1.26l4.22 12.44c-1.29,1.07 -3.08,1.96 -5.36,2.69 -2.29,0.72 -4.76,1.08 -7.43,1.08z"/>
   <g>
    <path class="fil0" d="M174.26 137.12l11.66 -19.62 1.83 0 4.34 19.62 -2.05 0 -1.1 -5.25 -9.34 0 -3.04 5.25 -2.3 0zm6.39 -7.05l0 0 7.9 0 -2.1 -9.94 -5.8 9.94z"/>
    <path class="fil0" d="M199.46 137.34c-1.54,0 -2.65,-0.46 -3.31,-1.38 -0.67,-0.92 -0.87,-2.08 -0.61,-3.48l1.41 -7.38 -2.46 0 0.3 -1.71 2.49 0 0.53 -2.88 2.01 0 -0.52 2.88 4.75 0 -0.3 1.71 -4.78 0 -1.41 7.49c-0.17,0.9 -0.07,1.62 0.29,2.14 0.36,0.53 1,0.79 1.92,0.79 0.46,0 0.88,-0.05 1.27,-0.15 0.39,-0.11 0.81,-0.31 1.27,-0.63l0.39 1.61c-0.46,0.35 -0.98,0.6 -1.55,0.76 -0.57,0.15 -1.13,0.23 -1.69,0.23z"/>
    <path class="fil0" d="M210.49 137.34c-1.77,0 -3.19,-0.47 -4.27,-1.42 -1.08,-0.95 -1.62,-2.33 -1.62,-4.13 0,-1.14 0.18,-2.24 0.54,-3.28 0.36,-1.04 0.88,-1.96 1.56,-2.77 0.68,-0.81 1.51,-1.45 2.48,-1.91 0.96,-0.46 2.05,-0.69 3.27,-0.69 1.53,0 2.69,0.36 3.48,1.08 0.79,0.72 1.19,1.6 1.19,2.65 0,0.74 -0.16,1.41 -0.48,2.02 -0.33,0.6 -0.85,1.1 -1.58,1.49 -0.73,0.39 -1.71,0.62 -2.94,0.69l-5.47 0.25c-0.09,1.36 0.22,2.39 0.94,3.09 0.72,0.7 1.76,1.05 3.12,1.05 0.76,0 1.52,-0.15 2.28,-0.47 0.76,-0.31 1.41,-0.8 1.95,-1.46l1.1 1.27c-0.72,0.9 -1.54,1.55 -2.48,1.95 -0.94,0.39 -1.97,0.59 -3.07,0.59zm1.77 -12.57l0 0c-1.02,0 -1.9,0.23 -2.66,0.69 -0.75,0.46 -1.35,1.06 -1.81,1.8 -0.45,0.73 -0.75,1.53 -0.89,2.37l5.11 -0.25c1.25,-0.05 2.11,-0.3 2.57,-0.76 0.46,-0.45 0.69,-1 0.69,-1.64 0,-0.63 -0.24,-1.15 -0.72,-1.57 -0.48,-0.43 -1.24,-0.64 -2.29,-0.64z"/>
    <path class="fil0" d="M218.89 137.12l1.57 -8.95c0.15,-0.81 0.28,-1.61 0.39,-2.41 0.11,-0.79 0.19,-1.58 0.25,-2.37l1.96 0c-0.04,0.68 -0.12,1.44 -0.26,2.28 -0.14,0.84 -0.32,1.72 -0.54,2.64 0.74,-1.68 1.65,-2.96 2.75,-3.84 1.09,-0.89 2.32,-1.33 3.66,-1.33 1.4,0 2.43,0.46 3.1,1.39 0.66,0.94 0.79,2.37 0.38,4.3l-0.97 4.64c-0.12,0.61 -0.22,1.22 -0.27,1.83 -0.06,0.61 -0.08,1.21 -0.08,1.82l-2.05 0c0,-1.18 0.12,-2.34 0.36,-3.48l0.97 -4.59c0.29,-1.42 0.25,-2.44 -0.11,-3.08 -0.37,-0.63 -1.04,-0.95 -2.02,-0.95 -0.96,0 -1.88,0.38 -2.78,1.14 -0.89,0.77 -1.71,2.04 -2.44,3.8 -0.74,1.77 -1.37,4.16 -1.88,7.16l-1.99 0z"/>
    <path class="fil0" d="M240.55 137.34c-1.69,0 -3.02,-0.47 -3.99,-1.41 -0.97,-0.94 -1.45,-2.22 -1.45,-3.84 0,-1.12 0.17,-2.21 0.52,-3.27 0.35,-1.06 0.86,-2.02 1.54,-2.88 0.67,-0.85 1.49,-1.53 2.47,-2.04 0.98,-0.51 2.09,-0.76 3.34,-0.76 1.16,0 2.13,0.22 2.89,0.68 0.77,0.45 1.37,1.11 1.81,1.97l-1.66 1.14c-0.57,-1.29 -1.6,-1.94 -3.09,-1.94 -1.22,0 -2.26,0.33 -3.12,0.98 -0.87,0.66 -1.53,1.51 -1.98,2.57 -0.45,1.06 -0.68,2.18 -0.68,3.36 0,1.12 0.31,2 0.93,2.64 0.62,0.63 1.54,0.94 2.78,0.92 0.75,0 1.47,-0.15 2.15,-0.47 0.68,-0.31 1.3,-0.81 1.85,-1.49l1.3 1.19c-0.74,0.9 -1.57,1.57 -2.51,2 -0.94,0.43 -1.97,0.65 -3.1,0.65z"/>
    <path class="fil0" d="M248.37 137.12c0,-0.59 0.04,-1.17 0.11,-1.74 0.08,-0.57 0.16,-1.15 0.25,-1.74l0.97 -5.47c0.15,-0.81 0.27,-1.61 0.38,-2.41 0.12,-0.79 0.2,-1.58 0.25,-2.37l2.05 0c-0.06,0.79 -0.16,1.64 -0.31,2.54 -0.14,0.9 -0.27,1.67 -0.38,2.29l-0.94 5.28c-0.22,1.22 -0.33,2.42 -0.33,3.62l-2.05 0zm3.84 -16.85l0 0c-0.44,0 -0.78,-0.14 -1.02,-0.42 -0.24,-0.27 -0.36,-0.6 -0.36,-0.97 0,-0.36 0.13,-0.69 0.37,-0.96 0.25,-0.28 0.59,-0.42 1.01,-0.42 0.43,0 0.76,0.14 1.01,0.42 0.25,0.27 0.37,0.6 0.37,0.96 0,0.37 -0.12,0.7 -0.37,0.97 -0.25,0.28 -0.58,0.42 -1.01,0.42z"/>
    <path class="fil0" d="M262.55 123.14c1.58,0 2.84,0.46 3.78,1.38 0.94,0.92 1.41,2.22 1.41,3.9 0,1.27 -0.2,2.44 -0.59,3.52 -0.4,1.08 -0.95,2.02 -1.65,2.83 -0.7,0.81 -1.52,1.44 -2.46,1.89 -0.94,0.46 -1.95,0.68 -3.04,0.68 -1.62,0 -2.91,-0.45 -3.86,-1.37 -0.96,-0.91 -1.44,-2.2 -1.44,-3.88 0,-1.12 0.17,-2.21 0.52,-3.27 0.35,-1.06 0.87,-2.02 1.54,-2.88 0.67,-0.85 1.49,-1.53 2.46,-2.04 0.96,-0.51 2.07,-0.76 3.33,-0.76zm-2.38 12.35l0 0c1.14,0 2.13,-0.34 2.96,-1.01 0.83,-0.67 1.46,-1.54 1.9,-2.6 0.45,-1.05 0.67,-2.17 0.67,-3.35 0,-1.16 -0.3,-2.05 -0.89,-2.66 -0.59,-0.6 -1.41,-0.91 -2.46,-0.91 -1.16,0 -2.16,0.33 -3,1 -0.83,0.66 -1.48,1.52 -1.93,2.58 -0.45,1.06 -0.68,2.18 -0.68,3.36 0,1.16 0.3,2.05 0.9,2.66 0.6,0.62 1.44,0.93 2.53,0.93zm1.55 -14.2l0 0 4 -4.89 2.16 0.6 -4.17 4.29 -1.99 0z"/>
    <path class="fil0" d="M269.92 137.12l1.58 -8.95c0.15,-0.81 0.27,-1.61 0.39,-2.41 0.11,-0.79 0.19,-1.58 0.24,-2.37l1.97 0c-0.04,0.68 -0.13,1.44 -0.27,2.28 -0.13,0.84 -0.31,1.72 -0.54,2.64 0.74,-1.68 1.66,-2.96 2.75,-3.84 1.1,-0.89 2.32,-1.33 3.67,-1.33 1.4,0 2.43,0.46 3.09,1.39 0.66,0.94 0.79,2.37 0.39,4.3l-0.97 4.64c-0.13,0.61 -0.22,1.22 -0.28,1.83 -0.05,0.61 -0.08,1.21 -0.08,1.82l-2.04 0c0,-1.18 0.12,-2.34 0.36,-3.48l0.96 -4.59c0.3,-1.42 0.26,-2.44 -0.11,-3.08 -0.37,-0.63 -1.04,-0.95 -2.02,-0.95 -0.95,0 -1.88,0.38 -2.77,1.14 -0.9,0.77 -1.71,2.04 -2.45,3.8 -0.74,1.77 -1.36,4.16 -1.88,7.16l-1.99 0z"/>
    <path class="fil0" d="M292.28 137.12c0,-0.59 0.03,-1.17 0.11,-1.74 0.07,-0.57 0.15,-1.15 0.25,-1.74l0.96 -5.47c0.15,-0.81 0.28,-1.61 0.39,-2.41 0.11,-0.79 0.19,-1.58 0.25,-2.37l2.04 0c-0.05,0.79 -0.15,1.64 -0.3,2.54 -0.15,0.9 -0.28,1.67 -0.39,2.29l-0.94 5.28c-0.22,1.22 -0.33,2.42 -0.33,3.62l-2.04 0zm3.84 -16.85l0 0c-0.44,0 -0.78,-0.14 -1.02,-0.42 -0.24,-0.27 -0.36,-0.6 -0.36,-0.97 0,-0.36 0.12,-0.69 0.37,-0.96 0.25,-0.28 0.58,-0.42 1.01,-0.42 0.42,0 0.76,0.14 1.01,0.42 0.25,0.27 0.37,0.6 0.37,0.96 0,0.37 -0.12,0.7 -0.37,0.97 -0.25,0.28 -0.59,0.42 -1.01,0.42z"/>
    <path class="fil0" d="M298.16 137.12l1.58 -8.95c0.14,-0.81 0.27,-1.61 0.38,-2.41 0.11,-0.79 0.2,-1.58 0.25,-2.37l1.96 0c-0.03,0.68 -0.12,1.44 -0.26,2.28 -0.14,0.84 -0.32,1.72 -0.54,2.64 0.74,-1.68 1.66,-2.96 2.75,-3.84 1.1,-0.89 2.32,-1.33 3.66,-1.33 1.4,0 2.44,0.46 3.1,1.39 0.66,0.94 0.79,2.37 0.39,4.3l-0.97 4.64c-0.13,0.61 -0.22,1.22 -0.28,1.83 -0.05,0.61 -0.08,1.21 -0.08,1.82l-2.05 0c0,-1.18 0.12,-2.34 0.36,-3.48l0.97 -4.59c0.29,-1.42 0.26,-2.44 -0.11,-3.08 -0.37,-0.63 -1.04,-0.95 -2.02,-0.95 -0.95,0 -1.88,0.38 -2.77,1.14 -0.9,0.77 -1.71,2.04 -2.45,3.8 -0.74,1.77 -1.36,4.16 -1.88,7.16l-1.99 0z"/>
    <path class="fil0" d="M319.19 137.34c-1.55,0 -2.65,-0.46 -3.32,-1.38 -0.66,-0.92 -0.86,-2.08 -0.6,-3.48l1.41 -7.38 -2.46 0 0.3 -1.71 2.49 0 0.52 -2.88 2.02 0 -0.53 2.88 4.76 0 -0.31 1.71 -4.78 0 -1.41 7.49c-0.16,0.9 -0.07,1.62 0.29,2.14 0.36,0.53 1,0.79 1.92,0.79 0.46,0 0.89,-0.05 1.28,-0.15 0.38,-0.11 0.81,-0.31 1.27,-0.63l0.38 1.61c-0.46,0.35 -0.97,0.6 -1.54,0.76 -0.58,0.15 -1.14,0.23 -1.69,0.23z"/>
    <path class="fil0" d="M330.22 137.34c-1.77,0 -3.2,-0.47 -4.27,-1.42 -1.08,-0.95 -1.62,-2.33 -1.62,-4.13 0,-1.14 0.18,-2.24 0.54,-3.28 0.36,-1.04 0.88,-1.96 1.56,-2.77 0.68,-0.81 1.51,-1.45 2.47,-1.91 0.97,-0.46 2.06,-0.69 3.28,-0.69 1.53,0 2.69,0.36 3.48,1.08 0.79,0.72 1.19,1.6 1.19,2.65 0,0.74 -0.17,1.41 -0.49,2.02 -0.32,0.6 -0.84,1.1 -1.57,1.49 -0.73,0.39 -1.71,0.62 -2.94,0.69l-5.48 0.25c-0.09,1.36 0.23,2.39 0.94,3.09 0.72,0.7 1.76,1.05 3.13,1.05 0.75,0 1.51,-0.15 2.28,-0.47 0.76,-0.31 1.41,-0.8 1.94,-1.46l1.11 1.27c-0.72,0.9 -1.55,1.55 -2.49,1.95 -0.94,0.39 -1.96,0.59 -3.06,0.59zm1.76 -12.57l0 0c-1.01,0 -1.89,0.23 -2.65,0.69 -0.75,0.46 -1.36,1.06 -1.81,1.8 -0.45,0.73 -0.75,1.53 -0.9,2.37l5.11 -0.25c1.26,-0.05 2.11,-0.3 2.57,-0.76 0.47,-0.45 0.7,-1 0.7,-1.64 0,-0.63 -0.24,-1.15 -0.72,-1.57 -0.48,-0.43 -1.25,-0.64 -2.3,-0.64z"/>
    <path class="fil0" d="M342.82 142.92c-0.8,0 -1.6,-0.07 -2.42,-0.23 -0.82,-0.16 -1.5,-0.4 -2.03,-0.73l0.69 -1.83c0.55,0.32 1.17,0.55 1.85,0.71 0.68,0.15 1.37,0.23 2.07,0.23 1.7,0 3,-0.43 3.91,-1.28 0.91,-0.86 1.56,-2.26 1.95,-4.22l0.41 -2.12c-0.68,1.25 -1.49,2.17 -2.43,2.76 -0.94,0.59 -1.96,0.88 -3.07,0.88 -1.43,0 -2.58,-0.41 -3.44,-1.24 -0.85,-0.83 -1.28,-2.01 -1.28,-3.54 0,-1.27 0.21,-2.46 0.62,-3.58 0.42,-1.11 0.99,-2.09 1.73,-2.92 0.74,-0.84 1.6,-1.5 2.6,-1.97 0.99,-0.47 2.07,-0.7 3.23,-0.7 0.77,0 1.52,0.13 2.25,0.4 0.73,0.27 1.29,0.59 1.67,0.98l0.5 -1.13 1.49 0c-0.22,0.96 -0.41,1.82 -0.56,2.58 -0.16,0.77 -0.29,1.48 -0.41,2.14l-1.24 7.16c-0.48,2.67 -1.35,4.61 -2.61,5.83 -1.26,1.22 -3.09,1.82 -5.48,1.82zm1.16 -7.68l0 0c0.97,0 1.88,-0.26 2.7,-0.8 0.83,-0.53 1.54,-1.28 2.12,-2.24 0.58,-0.96 0.98,-2.07 1.2,-3.34l0.47 -2.71c-0.79,-0.79 -1.89,-1.19 -3.29,-1.19 -1.27,0 -2.36,0.35 -3.26,1.04 -0.9,0.69 -1.59,1.58 -2.07,2.67 -0.48,1.08 -0.72,2.22 -0.72,3.42 0,1.02 0.24,1.79 0.73,2.34 0.49,0.54 1.19,0.81 2.12,0.81z"/>
    <path class="fil0" d="M364.48 125.29c-0.17,-0.05 -0.34,-0.09 -0.53,-0.11 -0.18,-0.01 -0.38,-0.02 -0.6,-0.02 -1.61,0 -2.94,0.94 -4.01,2.83 -1.07,1.89 -1.98,4.93 -2.74,9.13l-1.99 0 1.58 -8.95c0.15,-0.79 0.27,-1.59 0.39,-2.39 0.11,-0.8 0.19,-1.6 0.24,-2.39l1.97 0c-0.04,0.64 -0.13,1.37 -0.27,2.2 -0.13,0.81 -0.29,1.64 -0.45,2.47 0.79,-1.79 1.69,-3.06 2.71,-3.8 1.01,-0.75 2.01,-1.12 3.01,-1.12 0.29,0 0.55,0.01 0.77,0.04 0.22,0.03 0.41,0.08 0.55,0.15l-0.63 1.96z"/>
    <path class="fil0" d="M369.18 137.34c-1.44,0 -2.57,-0.43 -3.39,-1.28 -0.82,-0.86 -1.23,-2.07 -1.23,-3.64 0,-1.29 0.21,-2.49 0.62,-3.62 0.42,-1.12 0.99,-2.11 1.72,-2.95 0.72,-0.85 1.58,-1.51 2.57,-1.99 0.98,-0.48 2.04,-0.72 3.19,-0.72 0.77,0 1.52,0.13 2.23,0.4 0.72,0.27 1.28,0.59 1.66,0.98l0.5 -1.13 1.49 0c-0.22,0.96 -0.41,1.82 -0.56,2.58 -0.16,0.77 -0.29,1.48 -0.41,2.14l-0.77 4.34c-0.15,0.87 -0.27,1.74 -0.36,2.63 -0.09,0.88 -0.14,1.56 -0.14,2.04l-1.99 0c0,-0.59 0.04,-1.18 0.12,-1.77 0.07,-0.59 0.17,-1.19 0.3,-1.79 -0.68,1.29 -1.5,2.24 -2.45,2.86 -0.95,0.61 -1.98,0.92 -3.1,0.92zm0.3 -1.88l0 0c0.98,0 1.87,-0.27 2.68,-0.81 0.81,-0.55 1.5,-1.31 2.07,-2.3 0.57,-0.98 0.97,-2.12 1.19,-3.41l0.5 -2.76c-0.79,-0.81 -1.88,-1.22 -3.26,-1.22 -0.94,0 -1.79,0.21 -2.53,0.61 -0.75,0.41 -1.38,0.96 -1.89,1.66 -0.52,0.7 -0.91,1.48 -1.18,2.35 -0.27,0.86 -0.4,1.76 -0.4,2.68 0,1.03 0.24,1.82 0.73,2.37 0.49,0.56 1.19,0.83 2.09,0.83z"/>
    <path class="fil0" d="M383.46 137.34c-1.01,0 -1.78,-0.31 -2.29,-0.94 -0.52,-0.62 -0.68,-1.45 -0.5,-2.48l3.04 -17.25 2.02 0 -2.99 17c-0.11,0.61 -0.07,1.07 0.13,1.38 0.19,0.31 0.58,0.47 1.17,0.47 0.3,0 0.58,-0.04 0.84,-0.13 0.27,-0.08 0.49,-0.17 0.65,-0.26l0.28 1.52c-0.3,0.24 -0.66,0.42 -1.09,0.53 -0.44,0.11 -0.85,0.16 -1.26,0.16z"/>
    <path class="fil0" d="M402.97 123.14c1.44,0 2.56,0.42 3.37,1.27 0.81,0.85 1.22,2.05 1.22,3.62 0,1.29 -0.21,2.5 -0.61,3.62 -0.41,1.12 -0.98,2.11 -1.72,2.97 -0.73,0.86 -1.59,1.52 -2.57,2 -0.97,0.48 -2.04,0.72 -3.2,0.72 -0.68,0 -1.35,-0.1 -1.99,-0.32 -0.64,-0.21 -1.18,-0.48 -1.6,-0.81l-0.14 0.88 -0.97 5.56 -2.02 0 2.55 -14.48c0.14,-0.81 0.27,-1.61 0.38,-2.41 0.11,-0.79 0.2,-1.58 0.25,-2.37l1.96 0c-0.03,0.66 -0.09,1.27 -0.17,1.82 -0.09,0.55 -0.19,1.13 -0.32,1.72 0.68,-1.29 1.5,-2.25 2.46,-2.86 0.95,-0.62 1.99,-0.93 3.12,-0.93zm-0.33 1.85l0 0c-0.96,0 -1.85,0.28 -2.67,0.83 -0.82,0.55 -1.51,1.32 -2.09,2.31 -0.57,0.98 -0.96,2.12 -1.18,3.41l-0.47 2.74c0.79,0.81 1.88,1.21 3.26,1.21 0.94,0 1.77,-0.2 2.51,-0.61 0.74,-0.4 1.36,-0.95 1.88,-1.64 0.52,-0.69 0.91,-1.47 1.17,-2.35 0.27,-0.87 0.41,-1.77 0.41,-2.69 0,-1.04 -0.25,-1.83 -0.74,-2.38 -0.49,-0.55 -1.18,-0.83 -2.08,-0.83z"/>
    <path class="fil0" d="M414.66 137.34c-1.44,0 -2.57,-0.43 -3.39,-1.28 -0.82,-0.86 -1.23,-2.07 -1.23,-3.64 0,-1.29 0.21,-2.49 0.62,-3.62 0.42,-1.12 0.99,-2.11 1.72,-2.95 0.72,-0.85 1.58,-1.51 2.57,-1.99 0.98,-0.48 2.05,-0.72 3.19,-0.72 0.77,0 1.52,0.13 2.24,0.4 0.72,0.27 1.27,0.59 1.65,0.98l0.5 -1.13 1.49 0c-0.22,0.96 -0.41,1.82 -0.56,2.58 -0.16,0.77 -0.29,1.48 -0.4,2.14l-0.78 4.34c-0.14,0.87 -0.26,1.74 -0.36,2.63 -0.09,0.88 -0.13,1.56 -0.13,2.04l-1.99 0c0,-0.59 0.03,-1.18 0.11,-1.77 0.07,-0.59 0.17,-1.19 0.3,-1.79 -0.68,1.29 -1.5,2.24 -2.44,2.86 -0.95,0.61 -1.99,0.92 -3.11,0.92zm0.3 -1.88l0 0c0.98,0 1.87,-0.27 2.68,-0.81 0.81,-0.55 1.5,-1.31 2.07,-2.3 0.57,-0.98 0.97,-2.12 1.19,-3.41l0.5 -2.76c-0.79,-0.81 -1.88,-1.22 -3.26,-1.22 -0.94,0 -1.78,0.21 -2.53,0.61 -0.75,0.41 -1.38,0.96 -1.89,1.66 -0.52,0.7 -0.91,1.48 -1.18,2.35 -0.26,0.86 -0.4,1.76 -0.4,2.68 0,1.03 0.25,1.82 0.73,2.37 0.49,0.56 1.19,0.83 2.09,0.83z"/>
    <path class="fil0" d="M435.41 125.29c-0.17,-0.05 -0.34,-0.09 -0.53,-0.11 -0.18,-0.01 -0.38,-0.02 -0.6,-0.02 -1.61,0 -2.94,0.94 -4.01,2.83 -1.07,1.89 -1.98,4.93 -2.74,9.13l-1.99 0 1.58 -8.95c0.15,-0.79 0.27,-1.59 0.39,-2.39 0.11,-0.8 0.19,-1.6 0.24,-2.39l1.97 0c-0.04,0.64 -0.13,1.37 -0.27,2.2 -0.13,0.81 -0.29,1.64 -0.45,2.47 0.79,-1.79 1.69,-3.06 2.7,-3.8 1.02,-0.75 2.02,-1.12 3.02,-1.12 0.29,0 0.55,0.01 0.77,0.04 0.22,0.03 0.41,0.08 0.55,0.15l-0.63 1.96z"/>
    <path class="fil0" d="M440.1 137.34c-1.43,0 -2.56,-0.43 -3.38,-1.28 -0.82,-0.86 -1.23,-2.07 -1.23,-3.64 0,-1.29 0.21,-2.49 0.62,-3.62 0.42,-1.12 0.99,-2.11 1.72,-2.95 0.72,-0.85 1.58,-1.51 2.56,-1.99 0.99,-0.48 2.05,-0.72 3.2,-0.72 0.77,0 1.52,0.13 2.23,0.4 0.72,0.27 1.28,0.59 1.66,0.98l0.5 -1.13 1.49 0c-0.22,0.96 -0.41,1.82 -0.57,2.58 -0.15,0.77 -0.29,1.48 -0.4,2.14l-0.77 4.34c-0.15,0.87 -0.27,1.74 -0.36,2.63 -0.09,0.88 -0.14,1.56 -0.14,2.04l-1.99 0c0,-0.59 0.04,-1.18 0.12,-1.77 0.07,-0.59 0.17,-1.19 0.3,-1.79 -0.68,1.29 -1.5,2.24 -2.45,2.86 -0.95,0.61 -1.98,0.92 -3.11,0.92zm0.31 -1.88l0 0c0.97,0 1.87,-0.27 2.68,-0.81 0.81,-0.55 1.5,-1.31 2.07,-2.3 0.57,-0.98 0.97,-2.12 1.19,-3.41l0.5 -2.76c-0.8,-0.81 -1.88,-1.22 -3.26,-1.22 -0.94,0 -1.79,0.21 -2.53,0.61 -0.75,0.41 -1.38,0.96 -1.89,1.66 -0.52,0.7 -0.91,1.48 -1.18,2.35 -0.27,0.86 -0.4,1.76 -0.4,2.68 0,1.03 0.24,1.82 0.73,2.37 0.49,0.56 1.19,0.83 2.09,0.83z"/>
    <path class="fil0" d="M462.6 137.34c-1.55,0 -2.66,-0.46 -3.32,-1.38 -0.66,-0.92 -0.87,-2.08 -0.61,-3.48l1.41 -7.38 -2.46 0 0.31 -1.71 2.48 0 0.53 -2.88 2.02 0 -0.53 2.88 4.75 0 -0.3 1.71 -4.78 0 -1.41 7.49c-0.17,0.9 -0.07,1.62 0.29,2.14 0.36,0.53 1,0.79 1.92,0.79 0.46,0 0.88,-0.05 1.27,-0.15 0.39,-0.11 0.81,-0.31 1.27,-0.63l0.39 1.61c-0.46,0.35 -0.98,0.6 -1.55,0.76 -0.57,0.15 -1.13,0.23 -1.68,0.23z"/>
    <path class="fil0" d="M471.52 137.34c-1.32,0 -2.3,-0.46 -2.93,-1.39 -0.62,-0.93 -0.76,-2.36 -0.41,-4.27l0.63 -3.51c0.17,-0.81 0.3,-1.61 0.4,-2.41 0.11,-0.79 0.18,-1.58 0.24,-2.37l2.04 0c-0.05,0.79 -0.14,1.64 -0.27,2.54 -0.13,0.9 -0.26,1.67 -0.39,2.29l-0.66 3.46c-0.24,1.29 -0.19,2.24 0.16,2.86 0.35,0.61 1.01,0.92 1.97,0.92 0.92,0 1.81,-0.38 2.66,-1.16 0.86,-0.77 1.65,-2.04 2.39,-3.8 0.74,-1.76 1.37,-4.13 1.88,-7.11l1.93 0 -1.6 9.06c-0.15,0.87 -0.26,1.74 -0.36,2.63 -0.09,0.88 -0.13,1.56 -0.13,2.04l-1.99 0c0,-0.63 0.05,-1.3 0.15,-2.03 0.1,-0.73 0.27,-1.62 0.51,-2.67 -0.72,1.59 -1.61,2.8 -2.67,3.65 -1.06,0.85 -2.24,1.27 -3.55,1.27z"/>
    <path class="fil0" d="M495.59 137.34c-1.77,0 -3.19,-0.47 -4.27,-1.42 -1.08,-0.95 -1.62,-2.33 -1.62,-4.13 0,-1.14 0.18,-2.24 0.54,-3.28 0.36,-1.04 0.88,-1.96 1.56,-2.77 0.68,-0.81 1.51,-1.45 2.48,-1.91 0.96,-0.46 2.06,-0.69 3.27,-0.69 1.53,0 2.69,0.36 3.48,1.08 0.79,0.72 1.19,1.6 1.19,2.65 0,0.74 -0.16,1.41 -0.48,2.02 -0.33,0.6 -0.85,1.1 -1.58,1.49 -0.73,0.39 -1.71,0.62 -2.94,0.69l-5.47 0.25c-0.1,1.36 0.22,2.39 0.94,3.09 0.72,0.7 1.76,1.05 3.12,1.05 0.75,0 1.51,-0.15 2.28,-0.47 0.76,-0.31 1.41,-0.8 1.95,-1.46l1.1 1.27c-0.72,0.9 -1.55,1.55 -2.48,1.95 -0.94,0.39 -1.97,0.59 -3.07,0.59zm1.77 -12.57l0 0c-1.02,0 -1.9,0.23 -2.66,0.69 -0.75,0.46 -1.35,1.06 -1.81,1.8 -0.45,0.73 -0.75,1.53 -0.89,2.37l5.11 -0.25c1.25,-0.05 2.11,-0.3 2.57,-0.76 0.46,-0.45 0.69,-1 0.69,-1.64 0,-0.63 -0.24,-1.15 -0.72,-1.57 -0.48,-0.43 -1.24,-0.64 -2.29,-0.64z"/>
    <path class="fil0" d="M503.99 137.12l1.57 -8.95c0.15,-0.81 0.28,-1.61 0.39,-2.41 0.11,-0.79 0.19,-1.58 0.25,-2.37l1.96 0c-0.04,0.68 -0.12,1.44 -0.25,2.28 -0.13,0.84 -0.31,1.72 -0.55,2.64 0.74,-1.68 1.65,-2.96 2.73,-3.84 1.09,-0.89 2.28,-1.33 3.57,-1.33 1.14,0 2.04,0.33 2.69,0.99 0.66,0.67 0.96,1.69 0.9,3.07 0.76,-1.33 1.65,-2.33 2.68,-3.02 1.03,-0.7 2.13,-1.04 3.29,-1.04 1.34,0 2.34,0.46 3,1.39 0.65,0.94 0.78,2.37 0.37,4.3l-0.99 4.64c-0.11,0.61 -0.2,1.22 -0.25,1.83 -0.06,0.61 -0.09,1.21 -0.09,1.82l-2.04 0c0,-1.18 0.12,-2.34 0.36,-3.48l0.97 -4.59c0.29,-1.42 0.26,-2.44 -0.1,-3.08 -0.36,-0.63 -1,-0.95 -1.92,-0.95 -0.94,0 -1.84,0.38 -2.71,1.14 -0.87,0.77 -1.67,2.04 -2.4,3.8 -0.74,1.77 -1.37,4.16 -1.88,7.16l-1.99 0 1.41 -8.07c0.26,-1.42 0.22,-2.44 -0.1,-3.08 -0.32,-0.63 -0.95,-0.95 -1.89,-0.95 -0.92,0 -1.82,0.38 -2.7,1.14 -0.87,0.77 -1.68,2.04 -2.41,3.8 -0.74,1.77 -1.37,4.16 -1.88,7.16l-1.99 0z"/>
    <path class="fil0" d="M538.33 123.14c1.44,0 2.56,0.42 3.37,1.27 0.82,0.85 1.22,2.05 1.22,3.62 0,1.29 -0.2,2.5 -0.61,3.62 -0.4,1.12 -0.97,2.11 -1.71,2.97 -0.74,0.86 -1.59,1.52 -2.57,2 -0.98,0.48 -2.04,0.72 -3.21,0.72 -0.68,0 -1.34,-0.1 -1.98,-0.32 -0.65,-0.21 -1.18,-0.48 -1.61,-0.81l-0.14 0.88 -0.96 5.56 -2.02 0 2.54 -14.48c0.15,-0.81 0.28,-1.61 0.39,-2.41 0.11,-0.79 0.19,-1.58 0.25,-2.37l1.96 0c-0.04,0.66 -0.1,1.27 -0.18,1.82 -0.08,0.55 -0.19,1.13 -0.32,1.72 0.68,-1.29 1.5,-2.25 2.46,-2.86 0.96,-0.62 2,-0.93 3.12,-0.93zm-0.33 1.85l0 0c-0.96,0 -1.85,0.28 -2.66,0.83 -0.82,0.55 -1.52,1.32 -2.09,2.31 -0.57,0.98 -0.97,2.12 -1.19,3.41l-0.47 2.74c0.79,0.81 1.88,1.21 3.26,1.21 0.94,0 1.78,-0.2 2.52,-0.61 0.73,-0.4 1.36,-0.95 1.88,-1.64 0.51,-0.69 0.9,-1.47 1.17,-2.35 0.27,-0.87 0.4,-1.77 0.4,-2.69 0,-1.04 -0.24,-1.83 -0.73,-2.38 -0.49,-0.55 -1.19,-0.83 -2.09,-0.83z"/>
    <path class="fil0" d="M554.86 125.29c-0.17,-0.05 -0.34,-0.09 -0.53,-0.11 -0.18,-0.01 -0.38,-0.02 -0.61,-0.02 -1.6,0 -2.93,0.94 -4,2.83 -1.07,1.89 -1.98,4.93 -2.74,9.13l-1.99 0 1.58 -8.95c0.14,-0.79 0.27,-1.59 0.38,-2.39 0.11,-0.8 0.2,-1.6 0.25,-2.39l1.97 0c-0.04,0.64 -0.13,1.37 -0.27,2.2 -0.14,0.81 -0.29,1.64 -0.45,2.47 0.79,-1.79 1.69,-3.06 2.7,-3.8 1.02,-0.75 2.02,-1.12 3.02,-1.12 0.29,0 0.55,0.01 0.77,0.04 0.22,0.03 0.4,0.08 0.55,0.15l-0.63 1.96z"/>
    <path class="fil0" d="M560.94 137.34c-1.77,0 -3.2,-0.47 -4.27,-1.42 -1.08,-0.95 -1.62,-2.33 -1.62,-4.13 0,-1.14 0.18,-2.24 0.54,-3.28 0.36,-1.04 0.88,-1.96 1.56,-2.77 0.68,-0.81 1.51,-1.45 2.47,-1.91 0.97,-0.46 2.06,-0.69 3.28,-0.69 1.53,0 2.69,0.36 3.48,1.08 0.79,0.72 1.19,1.6 1.19,2.65 0,0.74 -0.16,1.41 -0.49,2.02 -0.32,0.6 -0.84,1.1 -1.57,1.49 -0.73,0.39 -1.71,0.62 -2.94,0.69l-5.47 0.25c-0.1,1.36 0.22,2.39 0.94,3.09 0.71,0.7 1.75,1.05 3.12,1.05 0.75,0 1.51,-0.15 2.28,-0.47 0.76,-0.31 1.41,-0.8 1.95,-1.46l1.1 1.27c-0.72,0.9 -1.55,1.55 -2.49,1.95 -0.94,0.39 -1.96,0.59 -3.06,0.59zm1.77 -12.57l0 0c-1.02,0 -1.9,0.23 -2.66,0.69 -0.75,0.46 -1.36,1.06 -1.81,1.8 -0.45,0.73 -0.75,1.53 -0.9,2.37l5.12 -0.25c1.25,-0.05 2.11,-0.3 2.57,-0.76 0.46,-0.45 0.69,-1 0.69,-1.64 0,-0.63 -0.24,-1.15 -0.72,-1.57 -0.48,-0.43 -1.25,-0.64 -2.29,-0.64z"/>
    <path class="fil0" d="M574.01 137.34c-3.37,0 -5.1,-1.36 -5.17,-4.09l1.8 -0.41c0.01,0.97 0.29,1.69 0.81,2.15 0.53,0.46 1.39,0.69 2.58,0.69 1.02,0 1.85,-0.22 2.49,-0.66 0.65,-0.44 0.97,-1.02 0.97,-1.74 0,-0.48 -0.17,-0.85 -0.5,-1.11 -0.33,-0.25 -0.76,-0.46 -1.27,-0.62 -0.52,-0.15 -1.07,-0.31 -1.66,-0.45 -0.59,-0.15 -1.14,-0.35 -1.66,-0.6 -0.51,-0.25 -0.94,-0.59 -1.27,-1.03 -0.33,-0.45 -0.49,-1.04 -0.49,-1.8 0,-0.92 0.25,-1.72 0.77,-2.4 0.51,-0.68 1.19,-1.2 2.02,-1.56 0.82,-0.36 1.71,-0.54 2.65,-0.54 1.25,0 2.25,0.3 3.01,0.91 0.76,0.61 1.19,1.46 1.3,2.57l-1.74 0.44c-0.13,-1.51 -1.01,-2.27 -2.63,-2.27 -0.95,0 -1.75,0.24 -2.39,0.72 -0.63,0.48 -0.95,1.12 -0.95,1.91 0,0.5 0.16,0.89 0.48,1.17 0.33,0.29 0.75,0.52 1.27,0.69 0.53,0.18 1.08,0.35 1.66,0.5 0.58,0.16 1.14,0.36 1.66,0.6 0.53,0.24 0.95,0.56 1.27,0.98 0.32,0.41 0.49,0.97 0.49,1.67 0,0.88 -0.27,1.65 -0.79,2.29 -0.53,0.65 -1.21,1.14 -2.06,1.48 -0.85,0.34 -1.73,0.51 -2.65,0.51z"/>
    <path class="fil0" d="M586.83 137.34c-1.44,0 -2.57,-0.43 -3.39,-1.28 -0.82,-0.86 -1.23,-2.07 -1.23,-3.64 0,-1.29 0.21,-2.49 0.62,-3.62 0.42,-1.12 0.99,-2.11 1.72,-2.95 0.73,-0.85 1.58,-1.51 2.57,-1.99 0.98,-0.48 2.05,-0.72 3.19,-0.72 0.77,0 1.52,0.13 2.24,0.4 0.72,0.27 1.27,0.59 1.65,0.98l0.5 -1.13 1.49 0c-0.22,0.96 -0.41,1.82 -0.56,2.58 -0.16,0.77 -0.29,1.48 -0.4,2.14l-0.78 4.34c-0.14,0.87 -0.26,1.74 -0.36,2.63 -0.09,0.88 -0.13,1.56 -0.13,2.04l-1.99 0c0,-0.59 0.03,-1.18 0.11,-1.77 0.07,-0.59 0.17,-1.19 0.3,-1.79 -0.68,1.29 -1.5,2.24 -2.44,2.86 -0.95,0.61 -1.99,0.92 -3.11,0.92zm0.3 -1.88l0 0c0.98,0 1.87,-0.27 2.68,-0.81 0.81,-0.55 1.5,-1.31 2.07,-2.3 0.57,-0.98 0.97,-2.12 1.19,-3.41l0.5 -2.76c-0.79,-0.81 -1.88,-1.22 -3.26,-1.22 -0.94,0 -1.78,0.21 -2.53,0.61 -0.75,0.41 -1.38,0.96 -1.89,1.66 -0.52,0.7 -0.91,1.48 -1.18,2.35 -0.26,0.86 -0.4,1.76 -0.4,2.68 0,1.03 0.25,1.82 0.73,2.37 0.49,0.56 1.19,0.83 2.09,0.83z"/>
   </g>
   <g>
    <path class="fil1" d="M98.11 80.32l-32.55 32.55c-0.29,0.24 -0.68,0.55 -1.14,0.91 -1.02,0.85 -2.09,1.58 -3.19,2.24 -5.32,2.96 -21.37,9.49 -34.52,-10.05 -0.62,-1.35 -3.53,-6.06 -2.46,-13.44 0.5,-2.52 2.72,-11.12 11.02,-19.33l-0.03 -0.02 27.34 -27.33c0.11,-0.11 0.23,-0.21 0.35,-0.32l0.2 -0.19c2.54,-2.55 2.54,-6.68 0,-9.23 -2.55,-2.55 -6.68,-2.55 -9.23,0l-29.81 29.81c-8.64,7.79 -11.65,17.18 -12,18.35 -2.7,7.65 -4.95,22.5 9.84,36.86l0 0c0.06,0.07 0.13,0.13 0.19,0.19 0.07,0.07 0.12,0.13 0.19,0.2l0 0c11.57,11.91 23.46,12.77 31.65,11.24l0 0.02c11.32,-1.95 18.56,-8.46 20.55,-10.44 0.05,-0.03 0.1,-0.07 0.15,-0.12l32.67 -32.67c2.55,-2.55 2.55,-6.68 0,-9.23 -2.54,-2.55 -6.68,-2.55 -9.22,0z"/>
    <path class="fil1" d="M131.56 56.44l0 0c-0.07,-0.07 -0.13,-0.13 -0.2,-0.2 -0.06,-0.06 -0.12,-0.13 -0.19,-0.19l0 0c-11.57,-11.91 -23.46,-12.77 -31.65,-11.24l0.01 -0.02c-0.42,0.07 -0.82,0.16 -1.22,0.24 1.83,-8.19 1.51,-20.69 -10.99,-32.83l0 0c-0.07,-0.07 -0.13,-0.13 -0.2,-0.2 -0.06,-0.06 -0.12,-0.13 -0.19,-0.19l0 0c-11.57,-11.91 -23.46,-12.77 -31.65,-11.24l0.01 -0.02c-11.33,1.95 -18.57,8.45 -20.55,10.43 -0.05,0.04 -0.11,0.08 -0.15,0.13l-32.68 32.67c-2.55,2.55 -2.55,6.68 0,9.23 2.55,2.55 6.68,2.55 9.23,0l32.55 -32.55c0.28,-0.24 0.67,-0.55 1.14,-0.91 1.01,-0.85 2.08,-1.59 3.19,-2.25 5.31,-2.95 21.37,-9.48 34.51,10.06 0.63,1.35 3.54,6.05 2.46,13.44 -0.49,2.52 -2.72,11.12 -11.01,19.33l0.02 0.01 -27.33 27.33c-0.12,0.12 -0.24,0.21 -0.35,0.32l-0.2 0.2c-2.55,2.55 -2.55,6.68 0,9.23 0,0 0.01,0.01 0.02,0.01 0,0.01 0,0.01 0.01,0.02 2.55,2.54 6.68,2.54 9.23,0l31.05 -31.05c0.19,-0.19 0.37,-0.37 0.55,-0.56l0.95 -0.94c0.28,-0.24 0.67,-0.56 1.14,-0.91 1.01,-0.85 2.08,-1.59 3.19,-2.25 5.31,-2.95 21.37,-9.48 34.51,10.06 0.63,1.34 3.54,6.05 2.46,13.44 -0.49,2.52 -2.72,11.12 -11.01,19.33l0.02 0.01 -27.33 27.33c-0.12,0.12 -0.24,0.21 -0.35,0.32l-0.2 0.2c-2.55,2.55 -2.55,6.68 0,9.23 2.55,2.54 6.68,2.54 9.22,0l29.81 -29.81c8.64,-7.79 11.65,-17.19 12,-18.35 2.7,-7.66 4.96,-22.5 -9.83,-36.86z"/>
   </g>
  </g>
 </g>
</svg>
